<?xml version="1.0" standalone="no"?>
<!DOCTYPE svg PUBLIC "-//W3C//DTD SVG 20010904//EN"
 "http://www.w3.org/TR/2001/REC-SVG-20010904/DTD/svg10.dtd">
<svg version="1.0" xmlns="http://www.w3.org/2000/svg"
 width="500.000000pt" height="500.000000pt" viewBox="0 0 500.000000 500.000000"
 preserveAspectRatio="xMidYMid meet">

<g transform="translate(500, 500) scale(-0.1,-0.1)"
fill="#ff0084">
<path d="M2023 4514 c-84 -41 -153 -134 -182 -242 -7 -23 -16 -42 -22 -42 -24
0 -205 -74 -261 -107 -249 -146 -414 -364 -484 -639 -19 -79 -24 -122 -24
-230 l0 -133 -28 8 c-15 5 -54 22 -86 40 -81 43 -127 42 -172 -3 -28 -28 -34
-41 -34 -77 1 -108 95 -206 255 -264 28 -10 52 -20 53 -21 2 -1 -23 -29 -55
-61 -155 -151 -79 -288 149 -269 43 4 90 11 105 17 24 9 31 5 80 -43 47 -47
53 -57 53 -95 0 -39 -6 -48 -96 -145 -193 -206 -291 -399 -314 -621 -43 -413
226 -765 707 -927 451 -151 1252 -139 1735 25 433 147 714 456 847 929 89 317
80 692 -23 946 -49 119 -106 180 -171 180 -39 0 -50 -8 -165 -123 -189 -186
-354 -232 -695 -192 -344 41 -405 52 -405 72 0 8 25 43 56 76 153 168 239 359
264 587 38 349 -142 720 -449 924 -74 50 -184 103 -266 130 -27 9 -56 19 -63
21 -9 3 -4 13 17 31 44 36 41 78 -6 103 -27 14 -142 15 -179 1 -15 -6 -29 -9
-31 -6 -2 2 5 22 16 45 26 51 27 85 1 111 -27 27 -66 25 -127 -6z m95 -49 c1
-11 -22 -60 -53 -109 -31 -49 -54 -90 -52 -93 3 -2 29 7 58 20 109 49 168 63
224 53 56 -11 43 -33 -40 -73 -41 -19 -77 -39 -80 -43 -3 -5 27 -16 67 -25
228 -50 392 -137 538 -284 317 -318 369 -800 127 -1172 -19 -30 -64 -87 -101
-127 -57 -63 -66 -78 -66 -111 0 -66 10 -70 240 -101 194 -27 233 -31 353 -37
278 -13 428 45 613 234 50 51 98 93 107 93 24 0 76 -48 96 -89 19 -38 63 -164
76 -216 18 -77 34 -230 34 -325 1 -295 -95 -621 -253 -858 -64 -97 -195 -233
-284 -295 -199 -140 -419 -218 -757 -269 -133 -20 -189 -22 -490 -23 -374 0
-455 8 -688 67 -407 102 -675 334 -758 655 -67 264 43 596 271 818 143 139
161 217 74 314 l-44 48 48 18 c153 57 280 155 307 235 15 45 15 52 0 84 -11
23 -31 41 -60 55 -62 29 -107 71 -169 161 -30 43 -68 87 -85 99 -43 31 -106
28 -176 -9 -31 -16 -63 -30 -70 -30 -47 0 -27 265 33 440 76 219 258 419 482
531 72 35 160 69 183 69 25 0 57 36 57 64 0 42 56 149 99 190 66 64 133 84
139 41z m-1191 -1342 c62 -34 75 -37 148 -37 71 0 87 3 140 32 33 18 69 32 80
32 41 -1 78 -35 159 -147 45 -63 83 -96 147 -129 46 -23 49 -26 49 -65 0 -35
-6 -47 -53 -94 -148 -147 -523 -251 -622 -173 -34 27 -26 32 25 17 83 -25 209
18 437 148 116 66 157 93 139 93 -3 0 -31 -7 -63 -15 -147 -38 -349 2 -590
117 -127 61 -194 192 -124 245 27 20 56 15 128 -24z m303 -372 c52 -11 108
-21 125 -21 36 0 28 -9 -45 -48 -185 -101 -350 -116 -350 -32 0 33 124 134
155 126 11 -2 63 -14 115 -25z"/>
<path d="M1760 3732 c-19 -9 -35 -24 -35 -32 0 -12 12 -14 65 -12 72 4 140
-18 174 -57 43 -47 51 0 9 50 -53 63 -145 85 -213 51z"/>
<path d="M1733 3513 c-42 -8 -111 -80 -132 -139 -79 -210 77 -433 250 -360 80
34 130 118 137 227 6 96 -15 162 -65 214 -55 57 -110 74 -190 58z m128 -56
c98 -66 123 -213 56 -332 -58 -103 -182 -115 -250 -23 -13 18 -27 42 -31 53
-15 40 -25 113 -19 134 l6 23 21 -27 c44 -55 155 -44 184 19 28 62 9 120 -52
157 l-31 19 41 0 c26 0 53 -8 75 -23z m-96 -33 c8 -4 22 -19 30 -35 18 -34 8
-69 -27 -93 -30 -21 -50 -20 -82 5 -65 51 -1 153 79 123z"/>
<path d="M3646 2141 c-97 -50 -206 -89 -317 -111 -152 -32 -337 -24 -599 25
-166 31 -209 36 -290 32 -226 -12 -379 -107 -470 -289 -33 -67 -43 -100 -49
-162 -29 -308 150 -561 473 -670 168 -56 346 -66 547 -31 270 48 499 175 577
322 15 28 15 76 0 91 -6 6 -10 13 -7 15 2 2 27 18 56 36 101 63 179 177 191
277 4 39 1 47 -26 72 l-31 29 25 24 c60 56 112 215 93 285 -24 84 -81 102
-173 55z m108 -37 c26 -26 24 -92 -6 -171 -41 -109 -154 -188 -318 -219 -152
-29 -154 -30 -75 -39 75 -8 196 5 278 31 26 9 54 13 62 10 41 -15 -7 -139 -83
-215 -93 -93 -201 -130 -382 -132 l-115 -1 60 -19 c43 -14 93 -21 177 -22 64
-2 120 -6 124 -9 28 -28 -112 -172 -223 -231 -244 -127 -603 -156 -856 -68
-107 37 -179 83 -262 166 -96 96 -138 173 -161 294 -14 77 -14 92 -1 168 20
106 67 193 143 262 65 60 85 71 179 102 108 36 245 32 455 -11 153 -32 179
-34 355 -35 150 0 206 4 264 18 105 25 197 59 277 101 78 41 86 42 108 20z"/>
</g>
</svg>
